<?xml version="1.0" standalone="no"?>
<!DOCTYPE svg PUBLIC "-//W3C//DTD SVG 20010904//EN"
 "http://www.w3.org/TR/2001/REC-SVG-20010904/DTD/svg10.dtd">
<svg version="1.0" xmlns="http://www.w3.org/2000/svg"
 width="16.000000pt" height="16.000000pt" viewBox="0 0 16.000000 16.000000"
 preserveAspectRatio="xMidYMid meet">
<metadata>
Created by potrace 1.11, written by Peter Selinger 2001-2013
</metadata>
<g transform="translate(0.000000,16.000000) scale(0.002963,-0.002963)"
fill="#000000" stroke="none">
<path d="M1827 5244 c-1 -1 -20 -5 -42 -8 -115 -17 -200 -61 -285 -146 -55
-55 -118 -151 -121 -185 0 -5 -5 -16 -11 -22 -6 -7 -8 -13 -5 -13 3 0 0 -21
-7 -47 -14 -55 -12 -163 4 -225 10 -38 53 -146 96 -245 59 -135 124 -292 124
-297 0 -2 13 -34 30 -69 16 -36 30 -68 30 -72 0 -3 9 -25 19 -48 11 -23 45
-103 76 -177 31 -74 62 -148 70 -165 7 -16 37 -86 65 -155 29 -69 63 -149 76
-178 13 -29 24 -56 24 -60 0 -5 11 -30 24 -58 13 -27 27 -60 31 -74 4 -14 11
-30 16 -36 9 -11 -28 -44 -48 -44 -6 0 -350 -144 -543 -227 -51 -22 -72 -31
-325 -138 -126 -53 -248 -105 -270 -115 -22 -10 -85 -37 -140 -60 -139 -57
-129 -53 -248 -109 -59 -28 -107 -56 -107 -61 0 -6 -4 -10 -10 -10 -13 0 -65
-55 -101 -106 -27 -40 -82 -154 -74 -154 2 0 -1 -17 -8 -37 -23 -68 -13 -191
23 -286 72 -191 249 -318 450 -319 41 -1 89 1 105 4 39 6 149 40 155 48 3 3
28 14 55 25 28 10 77 30 110 45 154 70 174 78 178 74 2 -3 10 2 17 11 7 8 19
15 26 15 8 0 22 4 32 9 9 5 34 16 55 25 20 9 52 23 70 31 17 8 232 100 477
205 245 105 458 198 474 206 16 8 34 14 40 14 6 0 26 -38 44 -83 19 -45 38
-91 43 -102 44 -101 92 -212 93 -220 1 -5 10 -27 19 -48 23 -51 40 -91 72
-167 42 -101 181 -431 201 -475 9 -22 18 -42 19 -45 4 -12 19 -48 36 -86 10
-22 27 -63 38 -90 10 -27 27 -67 37 -89 10 -22 18 -42 19 -45 1 -3 8 -21 17
-41 9 -20 19 -47 23 -60 4 -13 19 -41 31 -61 13 -21 24 -42 24 -47 0 -5 28
-38 63 -73 202 -204 514 -216 720 -28 58 53 127 147 127 174 0 9 4 16 10 16 5
0 9 3 8 8 -1 4 6 39 15 78 27 116 9 251 -48 367 -14 26 -22 47 -20 47 3 0 -24
64 -65 155 -5 11 -21 49 -36 85 -14 36 -32 80 -40 98 -8 17 -20 47 -28 65 -8
17 -37 88 -66 157 -29 69 -58 139 -65 155 -36 81 -75 174 -75 179 0 3 -13 35
-30 71 -16 36 -30 67 -30 69 0 2 -10 25 -22 52 -12 27 -23 51 -23 54 -1 3 -9
22 -18 44 -9 21 -17 40 -17 42 0 2 -11 27 -24 56 -81 178 -92 218 -62 218 7 0
40 14 74 30 34 17 64 30 66 30 2 0 30 12 62 27 33 14 68 28 78 30 11 2 27 10
36 18 9 8 21 15 27 15 6 0 37 12 69 26 101 44 115 51 264 115 80 34 165 71
190 82 25 11 50 21 55 22 6 2 35 14 65 28 30 13 89 39 130 57 41 18 111 48
155 67 44 19 96 41 115 50 127 53 230 102 245 115 8 7 34 29 58 48 79 64 144
166 171 268 12 49 14 162 3 207 -47 184 -185 322 -372 372 -50 13 -215 12
-255 -2 -22 -8 -42 -15 -45 -15 -8 -1 -39 -11 -60 -20 -18 -7 -52 -21 -65 -25
-3 -1 -27 -12 -55 -24 -27 -12 -59 -26 -70 -31 -11 -4 -36 -15 -55 -23 -19 -8
-51 -22 -70 -30 -174 -73 -784 -332 -817 -348 -24 -10 -45 -19 -48 -19 -2 0
-28 -11 -57 -24 -29 -13 -98 -42 -153 -65 -55 -23 -112 -48 -126 -56 -26 -15
-26 -15 -54 48 -50 113 -54 121 -80 187 -15 36 -33 80 -41 98 -8 17 -20 47
-28 65 -8 17 -26 61 -41 97 -14 36 -32 79 -40 95 -7 17 -25 59 -39 95 -15 36
-31 74 -36 85 -6 11 -86 201 -179 422 -93 221 -186 427 -206 458 -77 115 -215
203 -345 221 -50 6 -119 11 -123 8z"/>
</g>
</svg>
