<?xml version="1.0" encoding="utf-8"?>
<!-- Generator: Adobe Illustrator 15.0.0, SVG Export Plug-In  -->
<!DOCTYPE svg PUBLIC "-//W3C//DTD SVG 1.1//EN" "http://www.w3.org/Graphics/SVG/1.1/DTD/svg11.dtd" [
	<!ENTITY ns_flows "http://ns.adobe.com/Flows/1.0/">
]>
<svg version="1.1"
	 xmlns="http://www.w3.org/2000/svg" xmlns:xlink="http://www.w3.org/1999/xlink" xmlns:a="http://ns.adobe.com/AdobeSVGViewerExtensions/3.0/"
	 x="0px" y="0px" width="270px" height="264px" viewBox="-7.744 -4.77 270 264"
	 overflow="visible" enable-background="new -7.744 -4.77 270 264" xml:space="preserve">
<defs>
</defs>
<path fill="#E8A723" d="M173.796,256.347c-11.229,0.943-21.794-5.452-26.163-15.842L61.511,36.196l-0.441-1.149
	c-4.815-13.08,1.5-27.565,14.344-32.985c2.571-1.082,5.261-1.747,8.004-1.975c4.072-0.333,8.085,0.291,11.938,1.851
	c6.407,2.597,11.515,7.642,14.191,14.017l86.114,204.292l0.253,0.656c4.995,13.581-1.303,28.073-14.146,33.493
	C179.229,255.46,176.539,256.118,173.796,256.347L173.796,256.347z"/>
<path fill="#70CADB" d="M27.456,197.427c-11.131,0.958-21.085-4.939-25.375-15.025c-0.16-0.381-0.312-0.767-0.454-1.153
	c-4.831-12.971,1.433-27.424,14.26-32.899l205.764-87.351c2.454-0.922,5.021-1.505,7.632-1.732
	c11.426-0.984,21.65,5.039,26.043,15.338l0.397,0.996c5.033,13.508-3.821,26.61-15.278,31.486
	c-0.009,0.007-2.092,0.899-204.521,88.207C33.233,196.453,30.375,197.173,27.456,197.427L27.456,197.427z"/>
<path fill="#65863A" d="M114.447,161.522l47.863-20.645l-19.583-45.938L94.75,115.307L114.447,161.522z"/>
</svg>
